<svg width="154" height="33" fill="none" xmlns="http://www.w3.org/2000/svg"><path d="M146.287 22.11c-3.792-6.183-7.526-12.28-11.318-18.435a70.952 70.952 0 011.867-.379c.612-.116 1.254-.233 1.867-.379.262-.058.35.03.466.204 1.371 2.363 2.742 4.755 4.113 7.118.846 1.458 1.721 2.917 2.538 4.404.467.846.846 1.721 1.283 2.596.059.088.088.175.205.35.029-.291.087-.495.087-.7 0-2.042.321-4.025.554-6.038.205-1.604.38-3.238.584-4.842.204-1.663.408-3.355.642-5.017 0-.088.116-.204.204-.234C150.604.496 151.8.263 153.025 0c.029 0 .058 0 .175.03-1.05 7.087-2.071 14.176-3.121 21.322.496-.087.904-.175 1.342-.262.495-.088.991-.204 1.487-.321.204-.058.292.03.292.233v10.764c0 .496 0 .496-.496.496-4.988 0-9.976 0-14.993-.03-6.476-.029-12.952-.058-19.427-.058-6.505-.029-13.01-.058-19.515-.058-.642 0-1.254-.03-1.896-.058-.233 0-.32-.088-.38-.321a692.933 692.933 0 00-1.545-7.555l-1.925-9.364c-.642-3.15-1.284-6.271-1.926-9.422-.058-.32-.145-.641-.204-.991.496-.117.963-.205 1.43-.321 2.479-.496 4.93-1.021 7.409-1.517 2.392-.467 4.784-.438 7.059.583 2.129.963 3.617 2.596 4.725 4.61 1.109 2.012 1.75 4.2 2.217 6.446.409 1.954.584 3.938.496 5.921-.233 4.288-2.129 7.789-6.797 9.51l-.437.175c0 .029.029.058.029.087 6.126-1.225 12.251-2.45 18.494-3.704a3.161 3.161 0 00-.263-.146c-2.508-.438-4.229-1.955-5.367-4.172-.933-1.75-1.458-3.646-1.721-5.6-.146-.934-.233-1.867-.204-2.8.058-2.305.7-4.434 2.392-6.126 1.342-1.313 3.004-1.984 4.842-2.334 1.429-.262 2.859-.233 4.23.292 1.808.7 3.033 2.013 3.967 3.675.962 1.75 1.487 3.646 1.837 5.6.03.176.03.351.088.526.117.32 0 .438-.321.496-4.055.846-8.109 1.692-12.164 2.508-.117.03-.233.059-.437.117.175.525.32 1.05.495 1.546.613 1.488 1.576 2.655 3.209 3.063 1.225.292 2.421.117 3.617-.175 1.75-.438 3.413-1.05 4.988-1.954l.234-.117c.145.642.262 1.225.379 1.838.204 1.02.175 1.02-.7 1.546a9.797 9.797 0 00-.584.35c0 .029.03.058.03.087 4.083-.67 8.109-1.488 12.222-2.304zM98.215 10.269l.058.058c-.204.321-.408.613-.583.933-.525.992-.904 2.072-.671 3.21a700.64 700.64 0 001.546 7.613c.087.437.204.875.291 1.341 2.159-.408 3.734-1.662 5.251-3.092.233.205.467.409.7.555.146.087.35.175.496.145.642-.058 1.254-.233 1.809-.612.204-.146.379-.321.583-.496l.175.088c.583.554.788 1.195.729 1.983-.029.38 0 .788-.058 1.167 0 .116-.117.262-.233.32-.321.176-.496.41-.496.73 0 .467.029.933.116 1.37.059.38.438.468.671.176.204-.233.409-.525.467-.846.117-.613.35-1.138.729-1.634.146-.175.146-.495.146-.758 0-.204-.175-.408-.146-.612.088-.671.204-1.342.321-2.042.671.816.817 1.779.934 2.742 0 .087-.088.175-.146.262-.496.467-.613 1.692-.146 2.188.175.204.496.38.729.38.321-.03.379-.38.438-.672.087-.73.175-1.458.291-2.158.146-.759 0-1.43-.437-2.071-.35-.555-.613-1.196-.817-1.838-.175-.496-.438-.846-.963-.963a2.934 2.934 0 00-.875-.029c-.846.146-1.662.467-2.537.38-.584-.059-.642-.117-.701-.672-.087-1.05-.32-2.042-.991-2.917s-1.08-1.867-1.167-2.946c-.058-.7.117-1.312.817-1.808.116.146.175.32.321.437.408.409.845.759 1.429.905.292.058.496.204.612.495a.766.766 0 00.788.467c.846-.087 1.517-.933.963-1.838-.321-.495-.525-1.02-.817-1.546-.409-.758-.875-1.487-1.284-2.216a3.49 3.49 0 01-.233-.584c-.058-.32-.058-.67-.087-1.02 0-.117-.059-.263-.088-.41-.146.088-.263.147-.408.263v-.612c-.03-.03-.059-.03-.088-.059-.379.35-.758.7-1.108 1.08-.146.175-.263.262-.525.233-1.663-.117-3.151.292-4.405 1.459-.087.087-.146.175-.233.262l.058.058c.263-.029.525-.087.788-.116-1.226 1.05-2.422 2.042-2.86 3.675.293-.087.555-.262.847-.408zm23.307 2.888c.087.845.145 1.487.233 2.129.029.233.117.32.408.262 1.284-.291 2.596-.524 3.88-.787 1.692-.35 3.354-.7 5.046-1.05.263-.059.321-.146.234-.409-.292-.816-.525-1.691-.905-2.479-.846-1.721-2.421-2.975-4.725-2.567-1.721.292-3.092 1.109-3.734 2.83-.233.729-.321 1.516-.437 2.07zm-75.405.99c.263-.175.467-.35.7-.495 1.46-1.021 3.063-1.809 4.843-2.013 1.663-.204 3.296-.059 4.609 1.108.437.38.729.934 1.108 1.43.058.058.088.175.146.262.146-.117.262-.233.38-.35 1.516-1.371 3.266-2.217 5.25-2.48 1.079-.145 2.187-.087 3.238.263 1.837.613 2.858 1.984 3.296 3.792.204.846.291 1.721.291 2.596.03 4.434 0 8.868 0 13.302 0 .496 0 .466-.495.466-.934-.029-1.838-.058-2.772-.029-.35 0-.437-.116-.437-.437 0-4.142.029-8.255 0-12.397 0-.7-.117-1.4-.263-2.072-.408-1.633-1.691-2.479-3.383-2.275-1.546.175-2.772.992-3.91 1.926-.408.32-.553.67-.553 1.225.029 4.404 0 8.809 0 13.184 0 .496.116.584-.555.496-.846-.116-1.72-.146-2.566-.204-.292-.03-.35-.146-.35-.408V18.319c0-.905-.205-1.809-.817-2.509-.934-1.08-2.159-1.225-3.442-.875-1.371.35-2.567 1.08-3.676 1.984-.116.087-.175.291-.175.466v12.777c0 .32-.058.408-.408.35-.904-.146-1.809-.234-2.713-.321-.583-.059-.583-.03-.583-.613V12.456c0-.496 0-.496.495-.496h1.955c.263 0 .35.087.38.35.057.525.145 1.05.203 1.546.117.087.146.175.205.291zm41.247 16.219c-.35.204-.613.379-.905.554-.437.263-.846.525-1.312.73-.7.35-1.43.553-2.217.524a35.635 35.635 0 00-3.53 0c-1.312.059-2.363-.466-3.296-1.283-1.342-1.138-1.925-2.625-1.983-4.346-.059-1.634.32-3.15 1.487-4.376.875-.904 1.955-1.458 3.15-1.809 1.284-.379 2.568-.524 3.88-.554 1.254-.029 2.509 0 3.734 0 .292 0 .408-.087.38-.379-.06-.73-.06-1.458-.205-2.188-.292-1.633-1.342-2.508-3.005-2.683-1.779-.175-3.53.029-5.28.32-.787.147-1.604.35-2.391.497-.059 0-.146 0-.234.029V12.66c0-.088.146-.204.263-.234 1.167-.262 2.304-.583 3.471-.758a26.888 26.888 0 013.763-.263c1.196 0 2.363.175 3.471.613 1.984.787 3.092 2.304 3.53 4.346.204.934.291 1.925.291 2.859.03 4.142 0 8.284 0 12.426 0 .467 0 .467-.495.467-.642 0-1.255-.03-1.896 0-.292 0-.38-.087-.438-.35-.03-.438-.117-.875-.233-1.4zm-.642-5.25V22.84c0-.263-.058-.38-.35-.38-1.342.03-2.684-.028-4.026.03a7.579 7.579 0 00-2.654.554c-2.334.963-2.48 3.734-1.138 5.163.817.846 1.867 1.167 2.976 1.255 1.837.116 3.5-.467 4.93-1.605.116-.116.233-.32.233-.496.029-.758.029-1.517.029-2.246zM3.18 14.06c.145-.088.262-.146.35-.204 1.604-1.021 3.354-1.809 5.25-2.13 1.313-.233 2.655-.233 3.938.204 1.925.642 2.975 2.072 3.442 3.968.204.933.35 1.896.35 2.858.03 3.471 0 6.943.03 10.385 0 .291-.059.408-.41.437-1.02.059-2.07.175-3.091.263h-.233v-.438c0-3.354.029-6.709 0-10.093 0-.67-.088-1.37-.292-2.041-.554-2.013-2.13-2.626-3.909-2.421-1.72.204-3.238.991-4.696 1.896-.117.087-.204.291-.204.466v13.447c0 .263-.059.409-.35.438-1.08.175-2.188.35-3.326.554 0-.116-.029-.262-.029-.379V12.34c0-.321.088-.438.438-.438.7.03 1.37 0 2.07 0 .205 0 .35.03.38.292.058.642.175 1.225.292 1.867zm28.178 15.11c1.808-.642 2.596-2.071 2.946-3.821.525-2.538.525-5.076-.234-7.555-.437-1.488-1.312-2.655-2.858-3.092-1.546-.438-3.092-.35-4.405.7-.904.7-1.37 1.72-1.633 2.83-.38 1.574-.467 3.179-.38 4.812.088 1.255.234 2.45.7 3.617.467 1.109 1.196 1.984 2.422 2.48h-1.4c-1.226.029-2.48.058-3.705.058-.117 0-.263-.117-.321-.233-.613-1.08-.963-2.246-1.196-3.442-.292-1.546-.35-3.092-.262-4.668.087-1.75.35-3.5 1.079-5.134 1.166-2.566 3.15-3.996 5.95-4.404 1.605-.233 3.18-.146 4.726.32 2.538.788 4.084 2.568 4.9 5.018.409 1.254.613 2.538.7 3.88a21.88 21.88 0 01-.087 3.908c-.204 1.663-.613 3.267-1.488 4.726-.175.291-.35.35-.641.32a120.4 120.4 0 00-3.238-.203c-.525-.059-1.05-.088-1.575-.117z" fill="#fff"/></svg>