<svg width="154" height="33" viewBox="0 0 154 33" fill="none" xmlns="http://www.w3.org/2000/svg">
<path d="M146.287 22.1107C142.495 15.9267 138.761 9.83023 134.969 3.67539C135.64 3.52954 136.223 3.41287 136.836 3.29619C137.448 3.17951 138.09 3.06283 138.703 2.91698C138.965 2.85864 139.053 2.94615 139.169 3.12117C140.54 5.48392 141.911 7.87585 143.282 10.2386C144.128 11.6971 145.003 13.1556 145.82 14.6433C146.287 15.4892 146.666 16.3643 147.103 17.2394C147.162 17.3269 147.191 17.4144 147.308 17.5894C147.337 17.2977 147.395 17.0935 147.395 16.8893C147.395 14.8474 147.716 12.8639 147.949 10.8512C148.154 9.24683 148.329 7.61332 148.533 6.00898C148.737 4.3463 148.941 2.65445 149.175 0.991773C149.175 0.904263 149.291 0.787578 149.379 0.758409C150.604 0.49588 151.8 0.262529 153.025 0C153.054 0 153.083 -7.12198e-06 153.2 0.0291627C152.15 7.11743 151.129 14.2057 150.079 21.3523C150.575 21.2648 150.983 21.1773 151.421 21.0898C151.916 21.0023 152.412 20.8856 152.908 20.7689C153.112 20.7106 153.2 20.7981 153.2 21.0023C153.2 21.469 153.2 21.9065 153.2 22.3733C153.2 25.4944 153.2 28.6156 153.2 31.7659C153.2 32.2618 153.2 32.2618 152.704 32.2618C147.716 32.2618 142.728 32.2618 137.711 32.2327C131.235 32.2035 124.759 32.1743 118.284 32.1743C111.779 32.1452 105.274 32.116 98.769 32.116C98.1273 32.116 97.5147 32.0868 96.873 32.0576C96.6396 32.0576 96.5521 31.9701 96.4938 31.7368C95.9979 29.2282 95.4729 26.6904 94.9478 24.1818C94.3061 21.0606 93.6643 17.9394 93.0226 14.8183C92.3808 11.6679 91.7391 8.54676 91.0974 5.39642C91.039 5.07555 90.9515 4.75468 90.8932 4.40464C91.3891 4.28796 91.8558 4.20046 92.3225 4.08378C94.802 3.58789 97.2522 3.06283 99.7316 2.56694C102.124 2.10022 104.516 2.12939 106.791 3.15034C108.92 4.11294 110.408 5.74645 111.516 7.75917C112.625 9.77189 113.266 11.9596 113.733 14.2057C114.142 16.1601 114.317 18.1436 114.229 20.1272C113.996 24.4152 112.1 27.9155 107.432 29.6365C107.287 29.6949 107.141 29.7532 106.995 29.8116C106.995 29.8407 107.024 29.8699 107.024 29.8991C113.15 28.6739 119.275 27.4488 125.518 26.1945C125.372 26.107 125.314 26.0778 125.255 26.0487C122.747 25.6111 121.026 24.0943 119.888 21.8774C118.955 20.1272 118.43 18.2311 118.167 16.2768C118.021 15.3433 117.934 14.4099 117.963 13.4765C118.021 11.172 118.663 9.04264 120.355 7.35079C121.697 6.03815 123.359 5.36724 125.197 5.01721C126.626 4.75468 128.056 4.78385 129.427 5.3089C131.235 6.00898 132.46 7.32162 133.394 8.98431C134.356 10.7345 134.881 12.6305 135.231 14.5849C135.261 14.7599 135.261 14.935 135.319 15.11C135.436 15.4308 135.319 15.5475 134.998 15.6059C130.943 16.4518 126.889 17.2977 122.834 18.1145C122.717 18.1436 122.601 18.1728 122.397 18.2311C122.572 18.7562 122.717 19.2813 122.892 19.7771C123.505 21.2648 124.468 22.4316 126.101 22.84C127.326 23.1317 128.522 22.9567 129.718 22.665C131.468 22.2274 133.131 21.6148 134.706 20.7106C134.765 20.6814 134.823 20.6522 134.94 20.5939C135.085 21.2356 135.202 21.819 135.319 22.4316C135.523 23.4525 135.494 23.4525 134.619 23.9776C134.415 24.0943 134.21 24.211 134.035 24.3276C134.035 24.3568 134.065 24.386 134.065 24.4151C138.148 23.7442 142.174 22.9275 146.287 22.1107ZM98.2148 10.2678C98.244 10.2969 98.244 10.2969 98.2732 10.3261C98.069 10.647 97.8648 10.9387 97.6898 11.2595C97.1647 12.2513 96.7855 13.3306 97.0189 14.4682C97.5147 17.006 98.0398 19.5438 98.5649 22.0816C98.6524 22.5191 98.769 22.9567 98.8565 23.4234C101.015 23.015 102.59 21.7607 104.107 20.3314C104.34 20.5356 104.574 20.7397 104.807 20.8856C104.953 20.9731 105.157 21.0606 105.303 21.0314C105.945 20.9731 106.557 20.7981 107.112 20.4189C107.316 20.273 107.491 20.098 107.695 19.923C107.753 19.9522 107.812 19.9813 107.87 20.0105C108.453 20.5647 108.658 21.2065 108.599 21.9941C108.57 22.3733 108.599 22.7816 108.541 23.1608C108.541 23.2775 108.424 23.4234 108.308 23.4817C107.987 23.6567 107.812 23.8901 107.812 24.211C107.812 24.6777 107.841 25.1444 107.928 25.5819C107.987 25.9611 108.366 26.0487 108.599 25.757C108.803 25.5236 109.008 25.2319 109.066 24.911C109.183 24.2985 109.416 23.7734 109.795 23.2775C109.941 23.1025 109.941 22.7816 109.941 22.5191C109.941 22.3149 109.766 22.1107 109.795 21.9065C109.883 21.2356 109.999 20.5647 110.116 19.8646C110.787 20.6814 110.933 21.644 111.05 22.6066C111.05 22.6941 110.962 22.7816 110.904 22.8691C110.408 23.3359 110.291 24.561 110.758 25.0569C110.933 25.2611 111.254 25.4361 111.487 25.4361C111.808 25.4069 111.866 25.0569 111.925 24.7652C112.012 24.0359 112.1 23.3067 112.216 22.6066C112.362 21.8482 112.216 21.1773 111.779 20.5356C111.429 19.9813 111.166 19.3396 110.962 18.6979C110.787 18.202 110.524 17.8519 109.999 17.7353C109.708 17.6769 109.416 17.6769 109.124 17.7061C108.278 17.8519 107.462 18.1728 106.587 18.0853C106.003 18.027 105.945 17.9686 105.886 17.4144C105.799 16.3643 105.566 15.3725 104.895 14.4974C104.224 13.6223 103.815 12.6305 103.728 11.5512C103.67 10.8512 103.845 10.2386 104.545 9.74272C104.661 9.88857 104.72 10.0636 104.866 10.1803C105.274 10.5886 105.711 10.9387 106.295 11.0845C106.587 11.1429 106.791 11.2887 106.907 11.5804C107.053 11.9013 107.345 12.0763 107.695 12.0471C108.541 11.9596 109.212 11.1137 108.658 10.2094C108.337 9.71355 108.133 9.18849 107.841 8.66343C107.432 7.90502 106.966 7.17577 106.557 6.44653C106.47 6.27151 106.382 6.06732 106.324 5.86313C106.266 5.54226 106.266 5.19222 106.237 4.84219C106.237 4.72551 106.178 4.57966 106.149 4.43381C106.003 4.52132 105.886 4.57966 105.741 4.69634C105.741 4.46298 105.741 4.2588 105.741 4.08378C105.711 4.05461 105.682 4.0546 105.653 4.02543C105.274 4.37547 104.895 4.72551 104.545 5.10472C104.399 5.27974 104.282 5.36725 104.02 5.33808C102.357 5.2214 100.869 5.62977 99.615 6.79657C99.5275 6.88408 99.4691 6.97158 99.3816 7.05909C99.4108 7.08826 99.4108 7.08827 99.4399 7.11744C99.7025 7.08827 99.965 7.02993 100.228 7.00076C99.0024 8.05087 97.8064 9.04264 97.3689 10.6762C97.6606 10.5886 97.9231 10.4136 98.2148 10.2678ZM121.522 13.1556C121.609 14.0015 121.667 14.6433 121.755 15.285C121.784 15.5183 121.872 15.6059 122.163 15.5475C123.447 15.2558 124.759 15.0225 126.043 14.7599C127.735 14.4099 129.397 14.0599 131.089 13.7098C131.352 13.6515 131.41 13.564 131.323 13.3014C131.031 12.4847 130.798 11.6096 130.418 10.822C129.572 9.10098 127.997 7.84668 125.693 8.25506C123.972 8.54676 122.601 9.36352 121.959 11.0845C121.726 11.8138 121.638 12.6014 121.522 13.1556Z" fill="white"/>
<path d="M46.1175 14.1474C46.38 13.9724 46.5842 13.7973 46.8176 13.6515C48.2761 12.6305 49.8804 11.843 51.6598 11.6388C53.3225 11.4346 54.956 11.5804 56.2686 12.7472C56.7062 13.1264 56.9979 13.6806 57.3771 14.1765C57.4354 14.2349 57.4646 14.3516 57.5229 14.4391C57.6688 14.3224 57.7855 14.2057 57.9021 14.089C59.419 12.718 61.1692 11.8721 63.1527 11.6096C64.232 11.4637 65.3404 11.5221 66.3905 11.8721C68.2282 12.4847 69.2492 13.8557 69.6867 15.6642C69.8909 16.5101 69.9784 17.3852 69.9784 18.2603C70.0076 22.6941 69.9784 27.1279 69.9784 31.5618C69.9784 32.0576 69.9784 32.0285 69.4825 32.0285C68.5491 31.9993 67.6448 31.9701 66.7114 31.9993C66.3614 31.9993 66.2739 31.8826 66.2739 31.5618C66.2739 27.4196 66.303 23.3067 66.2739 19.1646C66.2739 18.4645 66.1572 17.7644 66.0113 17.0935C65.603 15.46 64.3195 14.6141 62.6276 14.8183C61.0816 14.9933 59.8565 15.8101 58.7189 16.7435C58.3105 17.0644 58.1647 17.4144 58.1647 17.9686C58.1938 22.3733 58.1647 26.7779 58.1647 31.1534C58.1647 31.6493 58.2813 31.7368 57.6104 31.6493C56.7645 31.5326 55.8894 31.5034 55.0435 31.4451C54.7518 31.4159 54.6935 31.2992 54.6935 31.0367C54.6935 26.8071 54.6935 22.5775 54.6935 18.3187C54.6935 17.4144 54.4892 16.5101 53.8767 15.81C52.9432 14.7308 51.7181 14.5849 50.4346 14.935C49.0637 15.285 47.8677 16.0142 46.7593 16.9185C46.6426 17.006 46.5842 17.2102 46.5842 17.3852C46.5842 19.1354 46.5842 20.8564 46.5842 22.6066C46.5842 25.1152 46.5842 27.653 46.5842 30.1616C46.5842 30.4825 46.5259 30.57 46.1759 30.5116C45.2716 30.3658 44.3673 30.2783 43.4631 30.1908C42.8797 30.1324 42.8797 30.1616 42.8797 29.5782C42.8797 23.8609 42.8797 18.1728 42.8797 12.4555C42.8797 11.9596 42.8797 11.9596 43.3755 11.9596C44.0173 11.9596 44.6882 11.9596 45.3299 11.9596C45.5925 11.9596 45.68 12.0471 45.7091 12.3097C45.7675 12.8347 45.855 13.3598 45.9133 13.8557C46.03 13.9432 46.0592 14.0307 46.1175 14.1474Z" fill="white"/>
<path d="M87.3637 30.3658C87.0136 30.57 86.7511 30.745 86.4594 30.92C86.0218 31.1826 85.6135 31.4451 85.1467 31.6493C84.4467 31.9993 83.7174 32.2035 82.9298 32.1743C81.763 32.116 80.5671 32.116 79.4003 32.1743C78.0876 32.2327 77.0375 31.7076 76.1041 30.8909C74.7623 29.7532 74.1789 28.2656 74.1205 26.5445C74.0622 24.911 74.4414 23.3942 75.6082 22.1691C76.4833 21.2648 77.5626 20.7106 78.7586 20.3605C80.042 19.9813 81.3255 19.8355 82.6381 19.8063C83.8924 19.7771 85.1467 19.8063 86.3719 19.8063C86.6636 19.8063 86.7802 19.7188 86.7511 19.4271C86.6927 18.6979 86.6927 17.9686 86.5469 17.2394C86.2552 15.6059 85.2051 14.7308 83.5424 14.5557C81.763 14.3807 80.0129 14.5849 78.2627 14.8766C77.4751 15.0225 76.6583 15.2266 75.8707 15.3725C75.8124 15.3725 75.7249 15.3725 75.6374 15.4017C75.6374 14.4682 75.6374 13.564 75.6374 12.6597C75.6374 12.5722 75.7832 12.4555 75.8999 12.4263C77.0667 12.1638 78.2043 11.843 79.3711 11.6679C80.5962 11.4929 81.8797 11.4054 83.134 11.4054C84.33 11.4054 85.4968 11.5804 86.6052 12.018C88.5888 12.8055 89.6972 14.3224 90.1348 16.3643C90.339 17.2977 90.4265 18.2895 90.4265 19.2229C90.4557 23.365 90.4265 27.5072 90.4265 31.6493C90.4265 32.116 90.4265 32.116 89.9306 32.116C89.2889 32.116 88.6763 32.0868 88.0346 32.116C87.7429 32.116 87.6553 32.0285 87.597 31.7659C87.5678 31.3284 87.4803 30.8908 87.3637 30.3658ZM86.7219 25.1152C86.7219 24.3568 86.7219 23.5984 86.7219 22.84C86.7219 22.5774 86.6636 22.4608 86.3719 22.4608C85.0301 22.4899 83.6883 22.4316 82.3464 22.4899C81.4422 22.5191 80.5379 22.6941 79.692 23.0442C77.3584 24.0068 77.2125 26.7779 78.5544 28.2072C79.3711 29.0531 80.4212 29.374 81.5297 29.4615C83.3674 29.5782 85.0301 28.9948 86.4594 27.8572C86.5761 27.7405 86.6927 27.5363 86.6927 27.3613C86.7219 26.6029 86.7219 25.8445 86.7219 25.1152Z" fill="white"/>
<path d="M3.17951 14.0599C3.32536 13.9724 3.44204 13.914 3.52955 13.8557C5.13389 12.8347 6.88408 12.0471 8.78012 11.7263C10.0928 11.4929 11.4346 11.4929 12.718 11.9305C14.6433 12.5722 15.6934 14.0015 16.1601 15.8976C16.3643 16.831 16.5101 17.7936 16.5101 18.7562C16.5393 22.2274 16.5101 25.6986 16.5393 29.1407C16.5393 29.4324 16.481 29.549 16.1309 29.5782C15.11 29.6366 14.0599 29.7532 13.0389 29.8407C12.9806 29.8407 12.8931 29.8407 12.8056 29.8407C12.8056 29.6949 12.8056 29.549 12.8056 29.4032C12.8056 26.0487 12.8347 22.6941 12.8056 19.3104C12.8056 18.6395 12.718 17.9394 12.5139 17.2685C11.9596 15.2558 10.3845 14.6433 8.6051 14.8475C6.88408 15.0516 5.36725 15.8392 3.90876 16.7435C3.79208 16.831 3.70457 17.0352 3.70457 17.2102C3.70457 18.9896 3.70457 20.7689 3.70457 22.5775C3.70457 25.2611 3.70457 27.9739 3.70457 30.6575C3.70457 30.92 3.64623 31.0659 3.35453 31.095C2.27525 31.2701 1.1668 31.4451 0.0291716 31.6493C0.0291716 31.5326 0 31.3867 0 31.2701C0 24.9694 0 18.6395 0 12.3388C0 12.018 0.0875095 11.9013 0.437548 11.9013C1.13762 11.9305 1.80853 11.9013 2.50861 11.9013C2.7128 11.9013 2.85864 11.9305 2.88781 12.193C2.94615 12.8347 3.06283 13.4181 3.17951 14.0599Z" fill="white"/>
<path d="M31.3576 29.1698C33.1661 28.5281 33.9537 27.0988 34.3037 25.3486C34.8288 22.8108 34.8288 20.273 34.0704 17.7936C33.6328 16.3059 32.7577 15.1391 31.2117 14.7016C29.6657 14.264 28.1197 14.3515 26.8071 15.4017C25.9028 16.1017 25.4361 17.1227 25.1736 18.2311C24.7944 19.8063 24.7069 21.4106 24.7944 23.0442C24.8819 24.2985 25.0277 25.4944 25.4944 26.6612C25.9612 27.7697 26.6904 28.6448 27.9155 29.1407C27.3905 29.1407 26.9529 29.1407 26.5154 29.1407C25.2903 29.1698 24.036 29.199 22.8108 29.199C22.6941 29.199 22.5483 29.0823 22.49 28.9656C21.8774 27.8863 21.5273 26.7196 21.294 25.5236C21.0023 23.9776 20.9439 22.4316 21.0315 20.8564C21.119 19.1062 21.3815 17.356 22.1107 15.7225C23.2775 13.1556 25.2611 11.7263 28.0614 11.3179C29.6657 11.0845 31.2409 11.172 32.7869 11.6387C35.3247 12.4263 36.8707 14.2057 37.6874 16.656C38.0958 17.9103 38.3 19.1937 38.3875 20.5355C38.475 21.8482 38.4459 23.1317 38.3 24.4443C38.0958 26.107 37.6874 27.7113 36.8123 29.1698C36.6373 29.4615 36.4623 29.5199 36.1706 29.4907C35.0913 29.4032 34.012 29.3448 32.9327 29.2865C32.4077 29.2282 31.8826 29.199 31.3576 29.1698Z" fill="white"/>
</svg>
